solid OpenSCAD_Model
  facet normal -1 0 0
    outer loop
      vertex 0 40.1 0
      vertex 0 22.225 1.25
      vertex 0 40.1 1.25
    endloop
  endfacet
  facet normal -1 0 0
    outer loop
      vertex 0 22.225 1.25
      vertex 0 20.725 1.25
      vertex 0 22.225 8.5
    endloop
  endfacet
  facet normal -1 0 0
    outer loop
      vertex 0 40.1 0
      vertex 0 20.725 1.25
      vertex 0 22.225 1.25
    endloop
  endfacet
  facet normal -1 0 0
    outer loop
      vertex 0 40.1 0
      vertex 0 19.275 1.25
      vertex 0 20.725 1.25
    endloop
  endfacet
  facet normal -1 0 0
    outer loop
      vertex 0 19.275 1.25
      vertex 0 17.775 1.25
      vertex 0 19.275 8.5
    endloop
  endfacet
  facet normal -1 0 0
    outer loop
      vertex 0 0 0
      vertex 0 19.275 1.25
      vertex 0 40.1 0
    endloop
  endfacet
  facet normal -1 -0 0
    outer loop
      vertex 0 19.275 1.25
      vertex 0 0 0
      vertex 0 17.775 1.25
    endloop
  endfacet
  facet normal -1 -0 0
    outer loop
      vertex 0 17.775 1.25
      vertex 0 0 0
      vertex 0 0 1.25
    endloop
  endfacet
  facet normal -1 -0 0
    outer loop
      vertex 0 22.225 8.5
      vertex 0 20.725 1.25
      vertex 0 20.725 8.5
    endloop
  endfacet
  facet normal -1 -0 0
    outer loop
      vertex 0 19.275 8.5
      vertex 0 17.775 1.25
      vertex 0 17.775 8.5
    endloop
  endfacet
  facet normal -0 0 1
    outer loop
      vertex 0 20.725 1.25
      vertex 4 19.275 1.25
      vertex 4 20.725 1.25
    endloop
  endfacet
  facet normal 0 0 1
    outer loop
      vertex 4 19.275 1.25
      vertex 0 20.725 1.25
      vertex 0 19.275 1.25
    endloop
  endfacet
  facet normal -0 0 1
    outer loop
      vertex 50 20.725 1.25
      vertex 54 19.275 1.25
      vertex 54 20.725 1.25
    endloop
  endfacet
  facet normal 0 0 1
    outer loop
      vertex 54 19.275 1.25
      vertex 50 20.725 1.25
      vertex 50 19.275 1.25
    endloop
  endfacet
  facet normal -0 0 1
    outer loop
      vertex 0 40.1 1.25
      vertex 54 22.225 1.25
      vertex 54 40.1 1.25
    endloop
  endfacet
  facet normal 0 0 1
    outer loop
      vertex 54 22.225 1.25
      vertex 0 40.1 1.25
      vertex 0 22.225 1.25
    endloop
  endfacet
  facet normal -0 0 1
    outer loop
      vertex 0 17.775 1.25
      vertex 54 0 1.25
      vertex 54 17.775 1.25
    endloop
  endfacet
  facet normal 0 0 1
    outer loop
      vertex 54 0 1.25
      vertex 0 17.775 1.25
      vertex 0 0 1.25
    endloop
  endfacet
  facet normal 1 -0 0
    outer loop
      vertex 4 19.275 1.25
      vertex 4 20.725 0
      vertex 4 20.725 1.25
    endloop
  endfacet
  facet normal 1 0 0
    outer loop
      vertex 4 20.725 0
      vertex 4 19.275 1.25
      vertex 4 19.275 0
    endloop
  endfacet
  facet normal 0 0 -1
    outer loop
      vertex 54 0 0
      vertex 50 19.275 0
      vertex 54 40.1 0
    endloop
  endfacet
  facet normal 0 0 -1
    outer loop
      vertex 54 0 0
      vertex 4 19.275 0
      vertex 50 19.275 0
    endloop
  endfacet
  facet normal -0 0 -1
    outer loop
      vertex 4 19.275 0
      vertex 0 0 0
      vertex 4 20.725 0
    endloop
  endfacet
  facet normal 0 0 -1
    outer loop
      vertex 0 0 0
      vertex 4 19.275 0
      vertex 54 0 0
    endloop
  endfacet
  facet normal 0 0 -1
    outer loop
      vertex 50 20.725 0
      vertex 54 40.1 0
      vertex 50 19.275 0
    endloop
  endfacet
  facet normal 0 0 -1
    outer loop
      vertex 4 20.725 0
      vertex 54 40.1 0
      vertex 50 20.725 0
    endloop
  endfacet
  facet normal 0 0 -1
    outer loop
      vertex 4 20.725 0
      vertex 0 40.1 0
      vertex 54 40.1 0
    endloop
  endfacet
  facet normal 0 0 -1
    outer loop
      vertex 0 40.1 0
      vertex 4 20.725 0
      vertex 0 0 0
    endloop
  endfacet
  facet normal 0 -1 0
    outer loop
      vertex 0 0 0
      vertex 54 0 1.25
      vertex 0 0 1.25
    endloop
  endfacet
  facet normal 0 -1 -0
    outer loop
      vertex 54 0 1.25
      vertex 0 0 0
      vertex 54 0 0
    endloop
  endfacet
  facet normal -1 0 0
    outer loop
      vertex 50 19.275 0
      vertex 50 20.725 1.25
      vertex 50 20.725 0
    endloop
  endfacet
  facet normal -1 -0 0
    outer loop
      vertex 50 20.725 1.25
      vertex 50 19.275 0
      vertex 50 19.275 1.25
    endloop
  endfacet
  facet normal 1 0 0
    outer loop
      vertex 54 19.275 8.5
      vertex 54 17.775 8.5
      vertex 54 19.275 1.25
    endloop
  endfacet
  facet normal 1 0 0
    outer loop
      vertex 54 22.225 8.5
      vertex 54 20.725 8.5
      vertex 54 22.225 1.25
    endloop
  endfacet
  facet normal 1 -0 0
    outer loop
      vertex 54 22.225 1.25
      vertex 54 40.1 0
      vertex 54 40.1 1.25
    endloop
  endfacet
  facet normal 1 0 0
    outer loop
      vertex 54 20.725 1.25
      vertex 54 22.225 1.25
      vertex 54 20.725 8.5
    endloop
  endfacet
  facet normal 1 -0 0
    outer loop
      vertex 54 20.725 1.25
      vertex 54 40.1 0
      vertex 54 22.225 1.25
    endloop
  endfacet
  facet normal 1 -0 0
    outer loop
      vertex 54 19.275 1.25
      vertex 54 40.1 0
      vertex 54 20.725 1.25
    endloop
  endfacet
  facet normal 1 0 0
    outer loop
      vertex 54 17.775 1.25
      vertex 54 19.275 1.25
      vertex 54 17.775 8.5
    endloop
  endfacet
  facet normal 1 0 0
    outer loop
      vertex 54 0 0
      vertex 54 19.275 1.25
      vertex 54 17.775 1.25
    endloop
  endfacet
  facet normal 1 0 0
    outer loop
      vertex 54 0 0
      vertex 54 17.775 1.25
      vertex 54 0 1.25
    endloop
  endfacet
  facet normal 1 0 0
    outer loop
      vertex 54 19.275 1.25
      vertex 54 0 0
      vertex 54 40.1 0
    endloop
  endfacet
  facet normal -0 0 1
    outer loop
      vertex 0 19.275 8.5
      vertex 54 17.775 8.5
      vertex 54 19.275 8.5
    endloop
  endfacet
  facet normal 0 0 1
    outer loop
      vertex 54 17.775 8.5
      vertex 0 19.275 8.5
      vertex 0 17.775 8.5
    endloop
  endfacet
  facet normal 0 1 -0
    outer loop
      vertex 50 19.275 0
      vertex 4 19.275 1.25
      vertex 50 19.275 1.25
    endloop
  endfacet
  facet normal 0 1 0
    outer loop
      vertex 4 19.275 1.25
      vertex 50 19.275 0
      vertex 4 19.275 0
    endloop
  endfacet
  facet normal 0 1 0
    outer loop
      vertex 50 19.275 1.25
      vertex 54 19.275 8.5
      vertex 54 19.275 1.25
    endloop
  endfacet
  facet normal 0 1 0
    outer loop
      vertex 54 19.275 8.5
      vertex 50 19.275 1.25
      vertex 0 19.275 8.5
    endloop
  endfacet
  facet normal 0 1 -0
    outer loop
      vertex 4 19.275 1.25
      vertex 0 19.275 8.5
      vertex 50 19.275 1.25
    endloop
  endfacet
  facet normal 0 1 0
    outer loop
      vertex 0 19.275 8.5
      vertex 4 19.275 1.25
      vertex 0 19.275 1.25
    endloop
  endfacet
  facet normal 0 -1 0
    outer loop
      vertex 0 17.775 1.25
      vertex 54 17.775 8.5
      vertex 0 17.775 8.5
    endloop
  endfacet
  facet normal 0 -1 -0
    outer loop
      vertex 54 17.775 8.5
      vertex 0 17.775 1.25
      vertex 54 17.775 1.25
    endloop
  endfacet
  facet normal -0 0 1
    outer loop
      vertex 0 22.225 8.5
      vertex 54 20.725 8.5
      vertex 54 22.225 8.5
    endloop
  endfacet
  facet normal 0 0 1
    outer loop
      vertex 54 20.725 8.5
      vertex 0 22.225 8.5
      vertex 0 20.725 8.5
    endloop
  endfacet
  facet normal 0 1 -0
    outer loop
      vertex 54 22.225 1.25
      vertex 0 22.225 8.5
      vertex 54 22.225 8.5
    endloop
  endfacet
  facet normal 0 1 0
    outer loop
      vertex 0 22.225 8.5
      vertex 54 22.225 1.25
      vertex 0 22.225 1.25
    endloop
  endfacet
  facet normal 0 -1 0
    outer loop
      vertex 4 20.725 0
      vertex 50 20.725 1.25
      vertex 4 20.725 1.25
    endloop
  endfacet
  facet normal 0 -1 -0
    outer loop
      vertex 50 20.725 1.25
      vertex 4 20.725 0
      vertex 50 20.725 0
    endloop
  endfacet
  facet normal 0 -1 0
    outer loop
      vertex 4 20.725 1.25
      vertex 0 20.725 8.5
      vertex 0 20.725 1.25
    endloop
  endfacet
  facet normal 0 -1 0
    outer loop
      vertex 0 20.725 8.5
      vertex 4 20.725 1.25
      vertex 54 20.725 8.5
    endloop
  endfacet
  facet normal 0 -1 0
    outer loop
      vertex 50 20.725 1.25
      vertex 54 20.725 8.5
      vertex 4 20.725 1.25
    endloop
  endfacet
  facet normal 0 -1 -0
    outer loop
      vertex 54 20.725 8.5
      vertex 50 20.725 1.25
      vertex 54 20.725 1.25
    endloop
  endfacet
  facet normal 0 1 -0
    outer loop
      vertex 54 40.1 0
      vertex 0 40.1 1.25
      vertex 54 40.1 1.25
    endloop
  endfacet
  facet normal 0 1 0
    outer loop
      vertex 0 40.1 1.25
      vertex 54 40.1 0
      vertex 0 40.1 0
    endloop
  endfacet
endsolid OpenSCAD_Model
